<?xml version="1.0" encoding="UTF-8" standalone="no"?>
<!DOCTYPE svg PUBLIC "-//W3C//DTD SVG 1.1//EN" "http://www.w3.org/Graphics/SVG/1.1/DTD/svg11.dtd">
<svg width="100%" height="100%" viewBox="0 0 500 500" version="1.1" xmlns="http://www.w3.org/2000/svg" xmlns:xlink="http://www.w3.org/1999/xlink" xml:space="preserve" xmlns:serif="http://www.serif.com/" style="fill-rule:evenodd;clip-rule:evenodd;stroke-linejoin:round;stroke-miterlimit:2;">
    <g transform="matrix(21.6992,0,0,21.6992,15.7744,11.3095)">
        <path d="M0.18,6.786C-0.06,6.978 -0.06,7.343 0.18,7.536L1.426,8.532C1.602,8.673 1.853,8.672 2.028,8.53L9.132,2.757C9.245,2.666 9.31,2.529 9.31,2.385L9.31,0.481C9.31,0.078 8.844,-0.145 8.53,0.106L0.18,6.786ZM2.325,12.607C2.15,12.749 1.899,12.75 1.723,12.609L0.579,11.694C0.34,11.502 0.338,11.139 0.576,10.946L8.527,4.486C8.841,4.231 9.31,4.454 9.31,4.858L9.31,6.704C9.31,6.848 9.245,6.985 9.132,7.076L2.325,12.607ZM0.873,15.023C0.636,15.216 0.637,15.58 0.876,15.771L8.53,21.894C8.844,22.145 9.31,21.922 9.31,21.519L9.31,9.177C9.31,8.773 8.841,8.55 8.527,8.804L0.873,15.023ZM10.27,21.359C10.27,21.787 10.787,22.001 11.089,21.699L21.448,11.339C21.635,11.152 21.635,10.848 21.448,10.661L11.089,0.302C10.787,-0.001 10.27,0.213 10.27,0.641L10.27,21.359Z" style="fill:rgb(32,39,35);"/>
    </g>
</svg>
