<svg width="500" height="500" viewBox="0 0 500 500" fill="none" xmlns="http://www.w3.org/2000/svg">
<path d="M414.598 181.974C412.683 174.498 409.681 168.562 406.002 163.688C405.664 163.248 405.289 162.772 404.839 162.295C393.353 149.396 373.909 146.575 358.445 154.563L101.926 288.473C100.594 289.168 99 288.202 99 286.7V234.222C99 233.472 99.4197 232.785 100.087 232.442L326.84 116.123L277.932 90.8009L273.052 88.2724C259.539 81.2732 243.324 81.2365 229.811 88.1991L224.744 90.8009L118.256 145.585C105.006 153.354 92.4695 162.222 87.4023 182.047C85.9759 187.471 85.1501 193.737 85 200.993V300.008C85.1501 307.263 85.9759 313.493 87.4023 318.916C89.204 325.989 91.944 331.632 95.3222 336.359C96.0729 337.422 97.0488 338.521 98.1374 339.621C109.923 351.604 128.616 354.169 143.63 346.4L400.074 212.527C401.406 211.832 403 212.798 403 214.3V266.778C403 267.528 402.58 268.215 401.913 268.558L175.122 384.877L223.993 410.199L228.948 412.764C242.461 419.727 258.676 419.764 272.226 412.764L277.256 410.163L383.744 355.378C396.994 347.646 409.493 338.778 414.598 318.916C416.024 313.493 416.85 307.227 417 299.971V200.956C416.85 193.664 415.987 187.397 414.598 181.937V181.974Z" fill="white"/>
</svg>
