<?xml version="1.0" encoding="UTF-8" standalone="no"?>
<!DOCTYPE svg PUBLIC "-//W3C//DTD SVG 1.1//EN" "http://www.w3.org/Graphics/SVG/1.1/DTD/svg11.dtd">
<svg width="100%" height="100%" viewBox="0 0 41 41" version="1.1" xmlns="http://www.w3.org/2000/svg" xmlns:xlink="http://www.w3.org/1999/xlink" xml:space="preserve" xmlns:serif="http://www.serif.com/" style="fill-rule:evenodd;clip-rule:evenodd;stroke-linejoin:round;stroke-miterlimit:2;">
    <path d="M28.651,14.637C28.669,15.16 28.72,15.968 27.954,15.784C27.187,15.6 26.36,15.34 24.338,15.612C22.797,15.819 21.77,16.28 20.824,16.679C19.619,17.188 19.205,17.416 18.26,17.832C16.511,18.602 15.635,18.632 14.974,18.655C14.442,18.673 13.303,18.598 12.386,17.742C12.386,17.742 11.644,16.994 11.447,15.876C11.355,15.358 11.365,15.337 11.358,14.698C11.305,9.843 15.118,5.84 19.845,5.788C24.572,5.736 28.596,9.654 28.651,14.637Z" style="fill:white;fill-rule:nonzero;"/>
    <path d="M13.093,19.706C11.924,18.908 11.334,20.081 11.701,20.654L20.192,34.864C20.305,35.094 20.631,35.087 20.734,34.852L28.526,18.747C28.78,18.071 28.65,17.596 27.953,17.363C26.583,16.905 25.522,17.012 24.583,17.204C23.117,17.505 22.027,17.942 20.735,18.436C20.556,18.504 19.915,18.765 18.482,19.372C17.049,19.979 16.571,20.102 15.958,20.227C14.609,20.503 13.826,20.205 13.093,19.706Z" style="fill:white;fill-rule:nonzero;"/>
</svg>
