<svg width="72" height="72" viewBox="0 0 72 72" fill="none" xmlns="http://www.w3.org/2000/svg">
<rect width="72" height="72" rx="16" fill="white"/>
<path d="M32.6696 23.7876C32.6696 28.6927 28.6936 32.6689 23.7887 32.6689C18.8838 32.6689 14.9062 28.6927 14.9062 23.7876C14.9062 18.8824 18.8822 14.9063 23.7887 14.9063C28.692 14.9062 32.6696 18.8824 32.6696 23.7876Z" fill="black"/>
<path fill-rule="evenodd" clip-rule="evenodd" d="M49.0122 32.6384C53.5785 32.2622 57.1667 28.4433 57.1667 23.7876C57.1667 18.8824 53.1838 14.9062 48.2703 14.9062C43.3569 14.9062 39.374 18.8824 39.374 23.7876C39.374 23.7879 39.374 23.7883 39.374 23.7887L39.3723 23.7873C39.3723 23.7873 38.6011 30.0826 34.9241 33.7792C31.5565 37.1647 23.8865 39.1063 22.6196 39.4091C18.2648 39.9872 14.9062 43.7081 14.9062 48.2124C14.9062 53.1176 18.8908 57.0938 23.8042 57.0938C25.678 57.0938 27.4165 56.5155 28.8504 55.5279C33.943 52.8224 38.4843 53.2753 43.5699 55.7544C44.9338 56.6033 46.5447 57.0938 48.2703 57.0938C53.1838 57.0938 57.1667 53.1176 57.1667 48.2124C57.1667 43.3073 53.1838 39.3311 48.2703 39.3311C44.7144 39.3311 41.6458 41.4137 40.2217 44.4239C39.5282 45.3811 38.2298 46.709 36.3631 46.709C34.7207 46.709 33.694 46.3842 33.1102 46.1003C33.8475 44.4122 35.5763 40.9192 38.2614 38.2198C41.1934 35.2723 46.843 33.3119 49.0122 32.6384Z" fill="black"/>
</svg>
